<?xml version="1.0" encoding="utf-8"?>
<!-- Generator: Adobe Illustrator 19.1.0, SVG Export Plug-In . SVG Version: 6.00 Build 0)  -->
<svg version="1.1" id="Layer_1" xmlns="http://www.w3.org/2000/svg" xmlns:xlink="http://www.w3.org/1999/xlink" x="0px" y="0px"
	 viewBox="0 0 19 19" style="enable-background:new 0 0 19 19;" xml:space="preserve">
<style type="text/css">
	.st0{fill:#A7B9C4;}
	.st1{fill:#5A6772;}
</style>
<path class="st0" d="M17,2v15H2V2H17 M17,0H2C0.9,0,0,0.9,0,2v15c0,1.1,0.9,2,2,2h15c1.1,0,2-0.9,2-2V2C19,0.9,18.1,0,17,0L17,0z"/>
<path class="st1" d="M16,5.6c-0.1-0.5-0.3-0.9-0.7-1.2c-0.8-0.6-2-0.5-2.6,0.4l-4.2,5.6L6.2,8.2c-0.7-0.7-1.9-0.7-2.7,0
	C3.2,8.6,3,9,3,9.5s0.2,1,0.6,1.3l3.7,3.6C7.6,14.8,8.1,15,8.6,15l0.1,0c0.5,0,1-0.3,1.4-0.7L15.6,7C15.9,6.6,16.1,6.1,16,5.6z"/>
</svg>
